<?xml version="1.0" standalone="no"?>
<!DOCTYPE svg PUBLIC "-//W3C//DTD SVG 20010904//EN"
 "http://www.w3.org/TR/2001/REC-SVG-20010904/DTD/svg10.dtd">
<svg version="1.0" xmlns="http://www.w3.org/2000/svg"
 width="128.000000pt" height="128.000000pt" viewBox="0 0 128.000000 128.000000"
 preserveAspectRatio="xMidYMid meet">
<metadata>
Created by potrace 1.14, written by Peter Selinger 2001-2017
</metadata>
<g transform="translate(0.000000,128.000000) scale(0.100000,-0.100000)"
fill="#000000" stroke="none">
<path d="M480 1185 c-7 -8 -19 -15 -27 -15 -8 0 -24 -10 -36 -22 -13 -13 -29
-23 -37 -23 -15 0 -50 -55 -43 -67 2 -5 -1 -8 -6 -8 -6 0 -11 -4 -11 -10 0 -5
-8 -19 -17 -30 -10 -11 -18 -24 -18 -28 -1 -4 -11 -26 -23 -50 -28 -52 -47
-52 -81 1 -19 29 -27 34 -38 26 -7 -6 -13 -18 -13 -25 0 -8 -5 -14 -10 -14 -6
0 -9 -3 -8 -7 1 -5 -6 -24 -16 -43 -13 -23 -15 -35 -7 -38 17 -6 14 -52 -4
-52 -17 0 -20 -25 -5 -35 6 -4 8 -11 5 -16 -4 -5 -1 -9 4 -9 6 0 28 -16 48
-36 36 -34 37 -36 18 -47 -11 -6 -24 -12 -28 -12 -4 0 -11 -6 -16 -13 -5 -8
-10 -13 -12 -13 -15 2 -49 -13 -49 -22 0 -6 3 -8 6 -4 4 3 15 -4 25 -16 10
-12 18 -18 19 -13 0 4 16 -4 36 -19 30 -23 46 -27 101 -29 l66 -1 0 -35 c0
-19 -5 -45 -12 -58 -6 -12 -8 -22 -4 -22 4 0 2 -5 -5 -12 -7 -7 -12 -20 -12
-30 0 -10 -7 -18 -15 -18 -8 0 -15 -8 -15 -19 0 -10 -12 -27 -27 -36 -22 -15
-24 -19 -10 -26 10 -6 27 -3 49 8 18 10 42 18 53 18 21 -1 45 17 45 33 0 15
26 22 39 9 16 -16 71 -16 71 0 0 8 5 11 10 8 6 -4 16 -3 23 2 21 16 65 13 79
-5 10 -12 27 -17 66 -16 44 0 52 -3 52 -19 0 -10 4 -16 9 -13 5 3 11 -7 14
-22 5 -23 67 -76 67 -56 0 3 7 1 15 -6 9 -7 13 -20 11 -29 -3 -9 3 -26 14 -39
16 -19 23 -21 40 -12 11 6 28 10 38 9 34 -3 53 1 47 11 -10 15 21 23 44 11 43
-23 51 60 9 100 -17 16 -23 30 -18 38 5 9 10 10 14 3 4 -6 13 -9 20 -6 7 3 16
-2 19 -10 4 -9 13 -13 22 -10 8 3 15 1 15 -5 0 -6 10 -9 23 -7 15 2 22 10 21
25 -1 11 3 21 7 21 5 0 9 6 9 14 0 11 29 28 50 28 9 0 51 48 42 48 -4 0 -14
16 -22 35 -7 19 -17 32 -22 29 -4 -3 -11 1 -14 10 -3 8 -12 12 -20 9 -11 -4
-14 5 -14 36 0 33 -4 41 -18 41 -10 0 -23 -5 -30 -12 -9 -9 -12 -8 -12 8 0 26
18 44 39 37 9 -4 13 -3 9 2 -4 4 -3 15 1 24 11 20 -6 37 -36 37 -13 0 -23 3
-23 7 0 4 0 13 0 20 0 8 12 20 27 28 15 8 47 33 71 56 l42 43 -20 20 c-12 12
-25 18 -31 15 -5 -4 -16 -1 -24 5 -12 10 -12 14 1 27 8 9 17 13 20 10 6 -6 64
55 64 67 0 3 -9 15 -20 26 -16 16 -18 24 -10 40 6 11 7 26 3 33 -4 6 -8 14 -9
17 -10 52 -14 55 -72 55 -31 0 -60 -4 -64 -10 -4 -5 -11 -10 -15 -10 -4 -1
-18 -5 -31 -9 -13 -4 -28 -4 -35 1 -28 22 -56 12 -68 -22 -14 -38 -32 -49 -57
-37 -30 14 -73 7 -85 -13 -7 -11 -19 -21 -27 -21 -41 -4 -58 -12 -87 -41 -18
-18 -44 -35 -58 -39 -14 -3 -25 -11 -25 -17 0 -19 -14 4 -16 26 -2 34 -15 67
-26 67 -5 0 -6 9 -3 20 4 11 2 20 -4 20 -7 0 -11 24 -11 60 0 33 4 60 8 60 5
0 9 6 9 13 0 6 3 22 7 35 9 26 -14 31 -34 7z"/>
</g>
</svg>
